<svg xmlns="http://www.w3.org/2000/svg" xmlns:xlink="http://www.w3.org/1999/xlink" width="700" height="500">
<defs>
<style type="text/css"><![CDATA[
  .borderLine {
	   stroke: none;
	   fill-opacity:  0.4 ;
  }
  .outLine {
	   stroke-width:  1 ;
	   fill: none;
  }
  .circle {
	   stroke: #888888;
	   stroke-width: 0.5;
	   fill: none;
    pointer-events: all;
  }
  .nLabel {
	   font-family: Arial;
    pointer-events: none;
	   font-size: 10px;
	   text-anchor: middle;
	   alignment-baseline: central;
  }
  .belong {
	   font-family: Arial;
    pointer-events: none;
	   font-size: 5px;
	   text-anchor: middle;
	   alignment-baseline: central;
  }
  .legend {
    font-family: Arial;
    font-size: 15px;
  }
  #legendBox {
    display:  inline ;
  }
  .p0{
    stroke: none;
    fill: #e6194b;
  }
  .q0{
    fill: none;
    stroke: #e6194b;
  }
  .p1{
    stroke: none;
    fill: #3cb44b;
  }
  .q1{
    fill: none;
    stroke: #3cb44b;
  }
  .p2{
    stroke: none;
    fill: #ffe119;
  }
  .q2{
    fill: none;
    stroke: #ffe119;
  }
  .p3{
    stroke: none;
    fill: #0082c8;
  }
  .q3{
    fill: none;
    stroke: #0082c8;
  }
]]>
</style>
<symbol id="bl0">
<path d="M 427.42 334.44 L 422.91 337.01 L 418.41 339.59 L 413.90 342.17 L 409.39 344.74 L 404.89 347.32 L 400.38 349.89 L 395.86 352.47 L 391.35 355.04 L 386.84 357.62 L 382.33 360.19 L 377.82 362.77 L 373.30 365.34 L 368.79 367.92 L 364.28 370.49 L 359.77 373.07 L 355.26 375.64 L 350.74 378.22 L 346.23 380.79 L 341.72 383.37 L 337.21 385.94 L 332.70 388.51 L 328.18 391.08 L 323.66 393.64 L 319.13 396.18 L 314.58 398.69 L 309.99 401.13 L 305.36 403.47 L 300.68 405.69 L 295.92 407.75 L 291.10 409.64 L 286.21 411.34 L 281.25 412.84 L 276.24 414.14 L 271.18 415.25 L 266.08 416.17 L 260.95 416.94 L 255.80 417.56 L 250.63 418.09 L 245.46 418.54 L 240.28 418.96 L 235.10 419.35 L 229.92 419.73 L 224.73 420.12 L 219.55 420.50 L 214.36 420.87 L 209.17 421.25 L 203.99 421.62 L 198.80 421.99 L 193.62 422.37 L 188.44 422.74 L 183.25 423.12 L 178.06 423.50 L 172.88 423.87 L 167.69 424.25 L 162.51 424.62 L 157.33 424.98 L 152.14 425.34 L 146.95 425.67 L 141.77 425.94 L 136.60 426.08 L 131.47 426.03 L 126.40 425.64 L 121.46 424.79 L 116.70 423.39 L 112.22 421.38 L 108.09 418.76 L 104.40 415.56 L 101.23 411.84 L 98.61 407.68 L 96.56 403.18 L 95.01 398.44 L 93.86 393.56 L 92.90 388.65 L 91.89 383.80 L 90.56 379.12 L 88.71 374.71 L 86.25 370.65 L 83.18 366.99 L 79.62 363.68 L 75.72 360.61 L 71.69 357.60 L 67.69 354.50 L 63.88 351.17 L 60.33 347.56 L 57.07 343.66 L 54.09 339.52 L 51.33 335.20 L 48.74 330.75 L 46.24 326.24 L 43.80 321.70 L 41.39 317.13 L 39.00 312.57 L 36.61 308.00 L 34.23 303.42 L 31.85 298.85 L 29.47 294.28 L 27.09 289.70 L 24.72 285.12 L 22.37 280.52 L 20.07 275.91 L 17.84 271.27 L 15.74 266.57 L 13.85 261.80 L 12.24 256.95 L 11.02 252.02 L 10.25 247.02 L 10.00 242.00 L 10.29 236.98 L 11.13 232.03 L 12.51 227.22 L 14.43 222.58 L 16.85 218.19 L 19.74 214.07 L 23.04 210.25 L 26.70 206.74 L 30.65 203.51 L 34.80 200.51 L 39.10 197.69 L 43.48 194.99 L 47.91 192.38 L 52.37 189.81 L 56.84 187.26 L 61.32 184.72 L 65.80 182.18 L 70.28 179.65 L 74.76 177.11 L 79.24 174.58 L 83.72 172.04 L 88.20 169.51 L 92.68 166.98 L 97.17 164.44 L 101.65 161.91 L 106.13 159.37 L 110.62 156.84 L 115.10 154.31 L 119.59 151.79 L 124.09 149.28 L 128.61 146.82 L 133.17 144.43 L 137.80 142.19 L 142.51 140.19 L 147.33 138.52 L 152.25 137.32 L 157.23 136.67 L 162.22 136.67 L 167.15 137.35 L 171.97 138.70 L 176.62 140.64 L 181.09 143.08 L 185.39 145.90 L 189.54 148.97 L 193.60 152.19 L 197.60 155.49 L 201.60 158.79 L 205.64 162.02 L 209.80 165.08 L 214.13 167.82 L 218.71 170.09 L 223.58 171.73 L 228.75 172.73 L 234.15 173.17 L 239.65 173.25 L 245.15 173.17 L 250.57 173.07 L 255.88 173.03 L 261.10 173.07 L 266.27 173.16 L 271.40 173.29 L 276.51 173.43 L 281.62 173.57 L 286.72 173.70 L 291.82 173.79 L 296.91 173.78 L 301.99 173.63 L 307.05 173.25 L 312.07 172.58 L 317.01 171.57 L 321.87 170.20 L 326.61 168.46 L 331.25 166.42 L 335.79 164.15 L 340.29 161.79 L 344.80 159.46 L 349.38 157.33 L 354.06 155.54 L 358.87 154.22 L 363.76 153.50 L 368.68 153.42 L 373.57 154.01 L 378.38 155.24 L 383.06 157.04 L 387.62 159.28 L 392.09 161.82 L 396.48 164.56 L 400.84 167.39 L 405.18 170.27 L 409.50 173.17 L 413.83 176.08 L 418.15 178.99 L 422.47 181.90 L 426.78 184.81 L 431.10 187.72 L 435.42 190.63 L 439.74 193.55 L 444.05 196.46 L 448.35 199.39 L 452.63 202.34 L 456.87 205.34 L 461.04 208.43 L 465.08 211.65 L 468.94 215.06 L 472.57 218.68 L 475.92 222.56 L 478.95 226.67 L 481.64 231.02 L 483.97 235.57 L 485.91 240.29 L 487.46 245.16 L 488.60 250.14 L 489.32 255.19 L 489.63 260.29 L 489.52 265.40 L 488.98 270.48 L 488.03 275.50 L 486.67 280.43 L 484.90 285.22 L 482.75 289.85 L 480.22 294.29 L 477.34 298.51 L 474.13 302.48 L 470.61 306.19 L 466.82 309.65 L 462.80 312.85 L 458.59 315.85 L 454.27 318.69 L 449.86 321.42 L 445.40 324.07 L 440.92 326.69 L 436.42 329.28 L 431.92 331.86 Z" />
</symbol>
<symbol id="bl1">
<path d="M 366.59 326.26 L 365.34 330.68 L 363.93 335.05 L 362.35 339.36 L 360.62 343.61 L 358.72 347.79 L 356.67 351.90 L 354.47 355.93 L 352.12 359.88 L 349.62 363.73 L 346.98 367.48 L 344.19 371.14 L 341.28 374.68 L 338.23 378.12 L 335.05 381.43 L 331.76 384.63 L 328.34 387.70 L 324.82 390.64 L 321.18 393.44 L 317.44 396.11 L 313.61 398.63 L 309.68 401.01 L 305.67 403.24 L 301.58 405.32 L 297.41 407.24 L 293.17 409.00 L 288.87 410.60 L 284.51 412.04 L 280.10 413.32 L 275.64 414.43 L 271.15 415.37 L 266.62 416.14 L 262.07 416.74 L 257.50 417.17 L 252.92 417.42 L 248.33 417.51 L 243.74 417.42 L 239.15 417.17 L 234.58 416.74 L 230.03 416.13 L 225.50 415.36 L 221.01 414.42 L 216.56 413.30 L 212.14 412.02 L 207.79 410.58 L 203.48 408.97 L 199.24 407.21 L 195.07 405.28 L 190.97 403.20 L 186.96 400.97 L 183.03 398.59 L 179.19 396.06 L 175.46 393.38 L 171.82 390.57 L 168.29 387.63 L 164.87 384.56 L 161.54 381.39 L 158.30 378.16 L 155.13 374.94 L 151.97 371.86 L 148.78 369.02 L 145.52 366.53 L 142.16 364.44 L 138.69 362.78 L 135.11 361.55 L 131.44 360.71 L 127.69 360.23 L 123.91 360.07 L 120.10 360.13 L 116.27 360.36 L 112.44 360.68 L 108.61 361.04 L 104.78 361.38 L 100.94 361.69 L 97.10 361.90 L 93.25 361.97 L 89.41 361.83 L 85.58 361.45 L 81.79 360.78 L 78.07 359.79 L 74.44 358.46 L 70.94 356.79 L 67.62 354.80 L 64.50 352.48 L 61.63 349.88 L 59.02 347.00 L 56.70 343.89 L 54.70 340.56 L 53.04 337.06 L 51.72 333.41 L 50.77 329.65 L 50.19 325.81 L 49.99 321.93 L 50.18 318.06 L 50.73 314.22 L 51.67 310.45 L 52.96 306.80 L 54.61 303.28 L 56.59 299.95 L 58.88 296.81 L 61.45 293.89 L 64.27 291.19 L 67.28 288.68 L 70.44 286.33 L 73.67 284.07 L 76.91 281.79 L 80.08 279.43 L 83.12 276.92 L 85.99 274.23 L 88.64 271.33 L 91.05 268.24 L 93.18 264.95 L 95.03 261.49 L 96.56 257.88 L 97.78 254.16 L 98.68 250.34 L 99.24 246.45 L 99.46 242.52 L 99.35 238.56 L 98.94 234.59 L 98.30 230.61 L 97.54 226.63 L 96.82 222.66 L 96.33 218.71 L 96.20 214.81 L 96.54 210.98 L 97.35 207.24 L 98.60 203.61 L 100.20 200.08 L 102.03 196.63 L 104.02 193.22 L 106.09 189.85 L 108.19 186.49 L 110.32 183.14 L 112.44 179.79 L 114.57 176.45 L 116.70 173.10 L 118.84 169.76 L 120.97 166.42 L 123.11 163.08 L 125.27 159.76 L 127.47 156.47 L 129.74 153.25 L 132.13 150.14 L 134.69 147.19 L 137.45 144.47 L 140.45 142.02 L 143.67 139.88 L 147.09 138.08 L 150.67 136.59 L 154.38 135.41 L 158.17 134.48 L 162.02 133.75 L 165.91 133.15 L 169.81 132.63 L 173.72 132.15 L 177.63 131.69 L 181.55 131.24 L 185.46 130.79 L 189.38 130.34 L 193.30 129.89 L 197.21 129.44 L 201.13 128.99 L 205.05 128.55 L 208.97 128.11 L 212.89 127.70 L 216.82 127.32 L 220.75 127.04 L 224.68 126.89 L 228.59 126.95 L 232.44 127.31 L 236.21 128.05 L 239.83 129.24 L 243.27 130.88 L 246.48 132.95 L 249.47 135.39 L 252.27 138.12 L 254.94 141.04 L 257.52 144.07 L 260.08 147.14 L 262.64 150.22 L 265.25 153.25 L 267.93 156.20 L 270.72 159.04 L 273.63 161.76 L 276.66 164.35 L 279.77 166.84 L 282.96 169.24 L 286.18 171.60 L 289.43 173.92 L 292.69 176.23 L 295.96 178.52 L 299.23 180.81 L 302.49 183.11 L 305.76 185.41 L 309.02 187.71 L 312.27 190.02 L 315.50 192.36 L 318.71 194.74 L 321.87 197.17 L 324.99 199.66 L 328.03 202.24 L 331.00 204.89 L 333.89 207.64 L 336.69 210.47 L 339.40 213.40 L 342.01 216.40 L 344.53 219.50 L 346.94 222.67 L 349.24 225.91 L 351.44 229.23 L 353.53 232.62 L 355.50 236.08 L 357.35 239.61 L 359.06 243.20 L 360.63 246.86 L 362.04 250.58 L 363.30 254.35 L 364.41 258.17 L 365.40 262.01 L 366.29 265.88 L 367.10 269.77 L 367.85 273.69 L 368.54 277.66 L 369.16 281.72 L 369.68 285.90 L 370.06 290.20 L 370.29 294.62 L 370.34 299.12 L 370.19 303.66 L 369.84 308.22 L 369.30 312.77 L 368.57 317.30 L 367.66 321.80 Z" />
</symbol>
<symbol id="bl2">
<path d="M 353.65 376.67 L 349.73 378.91 L 345.80 381.14 L 341.88 383.37 L 337.96 385.60 L 334.04 387.83 L 330.11 390.06 L 326.19 392.29 L 322.26 394.51 L 318.32 396.72 L 314.38 398.90 L 310.41 401.04 L 306.40 403.11 L 302.35 405.08 L 298.25 406.95 L 294.09 408.68 L 289.88 410.28 L 285.62 411.72 L 281.31 413.01 L 276.95 414.15 L 272.56 415.12 L 268.13 415.93 L 263.68 416.57 L 259.20 417.06 L 254.71 417.37 L 250.21 417.52 L 245.71 417.51 L 241.22 417.33 L 236.73 416.99 L 232.26 416.48 L 227.81 415.80 L 223.39 414.96 L 219.00 413.96 L 214.65 412.80 L 210.35 411.48 L 206.09 410.00 L 201.90 408.36 L 197.77 406.58 L 193.70 404.64 L 189.71 402.55 L 185.80 400.32 L 181.98 397.94 L 178.24 395.42 L 174.60 392.76 L 171.05 389.96 L 167.61 387.02 L 164.25 383.91 L 160.97 380.65 L 157.77 377.21 L 154.65 373.59 L 151.63 369.82 L 148.73 365.90 L 145.98 361.86 L 143.39 357.71 L 140.98 353.47 L 138.75 349.13 L 136.72 344.69 L 134.87 340.15 L 133.22 335.49 L 131.77 330.70 L 130.49 325.79 L 129.38 320.77 L 128.42 315.70 L 127.63 310.65 L 127.00 305.68 L 126.56 300.83 L 126.31 296.11 L 126.26 291.49 L 126.41 286.94 L 126.75 282.44 L 127.27 277.98 L 127.97 273.54 L 128.83 269.13 L 129.85 264.76 L 131.02 260.43 L 132.31 256.12 L 133.72 251.85 L 135.21 247.61 L 136.76 243.38 L 138.31 239.16 L 139.80 234.91 L 141.17 230.63 L 142.32 226.30 L 143.14 221.91 L 143.53 217.50 L 143.39 213.11 L 142.70 208.78 L 141.47 204.55 L 139.81 200.44 L 137.83 196.44 L 135.71 192.50 L 133.61 188.55 L 131.68 184.53 L 130.06 180.41 L 128.86 176.18 L 128.16 171.86 L 128.00 167.51 L 128.41 163.19 L 129.38 158.96 L 130.91 154.90 L 132.96 151.07 L 135.51 147.54 L 138.48 144.35 L 141.84 141.50 L 145.49 138.98 L 149.38 136.73 L 153.41 134.68 L 157.53 132.74 L 161.70 130.86 L 165.88 129.00 L 170.07 127.16 L 174.27 125.32 L 178.46 123.49 L 182.66 121.66 L 186.85 119.82 L 191.05 117.99 L 195.24 116.15 L 199.44 114.32 L 203.64 112.49 L 207.83 110.66 L 212.03 108.82 L 216.22 106.99 L 220.42 105.15 L 224.61 103.32 L 228.81 101.49 L 233.00 99.66 L 237.20 97.83 L 241.39 95.99 L 245.58 94.16 L 249.78 92.33 L 253.97 90.50 L 258.17 88.67 L 262.36 86.84 L 266.55 85.02 L 270.75 83.20 L 274.95 81.41 L 279.16 79.66 L 283.40 78.01 L 287.68 76.52 L 292.01 75.26 L 296.40 74.30 L 300.84 73.69 L 305.30 73.45 L 309.77 73.60 L 314.20 74.15 L 318.57 75.08 L 322.84 76.40 L 326.99 78.09 L 330.99 80.12 L 334.83 82.45 L 338.51 85.05 L 342.06 87.85 L 345.49 90.81 L 348.83 93.88 L 352.11 97.01 L 355.35 100.18 L 358.58 103.37 L 361.81 106.57 L 365.02 109.77 L 368.24 112.97 L 371.46 116.17 L 374.68 119.37 L 377.89 122.57 L 381.10 125.78 L 384.32 128.98 L 387.53 132.18 L 390.75 135.38 L 393.96 138.58 L 397.17 141.79 L 400.39 144.99 L 403.60 148.19 L 406.81 151.40 L 410.03 154.60 L 413.24 157.80 L 416.45 161.00 L 419.66 164.21 L 422.87 167.41 L 426.08 170.61 L 429.29 173.82 L 432.50 177.02 L 435.72 180.22 L 438.93 183.42 L 442.13 186.62 L 445.34 189.82 L 448.55 193.03 L 451.75 196.23 L 454.95 199.43 L 458.16 202.64 L 461.35 205.85 L 464.53 209.08 L 467.67 212.33 L 470.74 215.64 L 473.71 219.03 L 476.52 222.54 L 479.13 226.18 L 481.50 229.98 L 483.61 233.92 L 485.44 237.99 L 486.97 242.19 L 488.20 246.48 L 489.11 250.86 L 489.72 255.28 L 490.00 259.74 L 489.96 264.20 L 489.61 268.66 L 488.93 273.07 L 487.94 277.43 L 486.64 281.70 L 485.04 285.87 L 483.15 289.91 L 480.97 293.81 L 478.51 297.54 L 475.80 301.09 L 472.85 304.44 L 469.68 307.59 L 466.31 310.54 L 462.78 313.30 L 459.11 315.90 L 455.35 318.37 L 451.52 320.74 L 447.65 323.04 L 443.76 325.31 L 439.85 327.55 L 435.94 329.79 L 432.03 332.02 L 428.12 334.26 L 424.20 336.49 L 420.28 338.72 L 416.37 340.96 L 412.45 343.19 L 408.53 345.42 L 404.61 347.65 L 400.69 349.89 L 396.78 352.12 L 392.86 354.35 L 388.94 356.59 L 385.02 358.82 L 381.10 361.05 L 377.18 363.28 L 373.25 365.51 L 369.33 367.74 L 365.41 369.98 L 361.49 372.21 L 357.57 374.44 Z" />
</symbol>
<symbol id="bl3">
<path d="M 478.47 297.17 L 475.50 301.07 L 472.24 304.73 L 468.71 308.16 L 464.96 311.36 L 461.03 314.34 L 456.96 317.15 L 452.79 319.82 L 448.55 322.40 L 444.28 324.92 L 439.99 327.40 L 435.69 329.87 L 431.38 332.33 L 427.07 334.79 L 422.76 337.24 L 418.44 339.70 L 414.13 342.15 L 409.82 344.61 L 405.51 347.06 L 401.20 349.52 L 396.88 351.97 L 392.57 354.42 L 388.25 356.88 L 383.93 359.33 L 379.62 361.79 L 375.30 364.24 L 370.99 366.70 L 366.68 369.15 L 362.36 371.61 L 358.04 374.06 L 353.72 376.51 L 349.40 378.97 L 345.08 381.42 L 340.76 383.87 L 336.44 386.32 L 332.13 388.77 L 327.80 391.22 L 323.48 393.67 L 319.15 396.10 L 314.80 398.50 L 310.44 400.85 L 306.03 403.13 L 301.57 405.29 L 297.05 407.32 L 292.47 409.18 L 287.82 410.87 L 283.10 412.37 L 278.34 413.69 L 273.52 414.83 L 268.66 415.79 L 263.78 416.60 L 258.87 417.27 L 253.94 417.84 L 249.01 418.32 L 244.06 418.75 L 239.12 419.15 L 234.17 419.54 L 229.23 419.92 L 224.28 420.30 L 219.33 420.67 L 214.38 421.04 L 209.43 421.41 L 204.48 421.79 L 199.54 422.16 L 194.59 422.53 L 189.64 422.90 L 184.69 423.28 L 179.74 423.65 L 174.79 424.02 L 169.85 424.39 L 164.90 424.76 L 159.95 425.13 L 155.00 425.49 L 150.05 425.84 L 145.11 426.17 L 140.16 426.42 L 135.23 426.55 L 130.30 426.48 L 125.39 426.14 L 120.50 425.49 L 115.64 424.57 L 110.80 423.42 L 105.98 422.11 L 101.18 420.71 L 96.40 419.25 L 91.62 417.77 L 86.85 416.28 L 82.08 414.77 L 77.33 413.23 L 72.61 411.63 L 67.96 409.92 L 63.45 408.01 L 59.19 405.78 L 55.30 403.13 L 51.89 399.99 L 49.08 396.36 L 46.92 392.30 L 45.41 387.89 L 44.49 383.26 L 44.05 378.50 L 43.97 373.67 L 44.14 368.83 L 44.46 363.99 L 44.86 359.16 L 45.31 354.33 L 45.78 349.51 L 46.26 344.68 L 46.75 339.86 L 47.27 335.04 L 47.85 330.23 L 48.53 325.43 L 49.36 320.66 L 50.42 315.95 L 51.79 311.35 L 53.53 306.90 L 55.68 302.67 L 58.26 298.69 L 61.25 294.98 L 64.59 291.57 L 68.22 288.40 L 72.03 285.43 L 75.96 282.58 L 79.92 279.78 L 83.86 276.96 L 87.75 274.10 L 91.58 271.17 L 95.37 268.19 L 99.13 265.17 L 102.87 262.13 L 106.60 259.09 L 110.33 256.04 L 114.05 252.99 L 117.78 249.94 L 121.50 246.88 L 125.21 243.82 L 128.90 240.74 L 132.56 237.62 L 136.14 234.45 L 139.64 231.21 L 143.05 227.89 L 146.38 224.51 L 149.66 221.09 L 152.93 217.66 L 156.24 214.26 L 159.63 210.90 L 163.15 207.59 L 166.81 204.33 L 170.61 201.09 L 174.51 197.83 L 178.40 194.47 L 182.13 190.95 L 185.56 187.21 L 188.61 183.21 L 191.29 178.98 L 193.67 174.56 L 195.84 170.04 L 197.88 165.45 L 199.88 160.83 L 201.89 156.23 L 203.99 151.67 L 206.25 147.22 L 208.77 142.97 L 211.64 139.04 L 214.92 135.59 L 218.64 132.76 L 222.76 130.68 L 227.18 129.44 L 231.75 129.10 L 236.33 129.65 L 240.77 131.04 L 244.99 133.19 L 248.94 135.96 L 252.63 139.17 L 256.11 142.68 L 259.46 146.34 L 262.75 150.06 L 266.08 153.73 L 269.50 157.30 L 273.08 160.70 L 276.81 163.93 L 280.68 167.01 L 284.66 169.96 L 288.71 172.85 L 292.78 175.69 L 296.87 178.52 L 300.97 181.34 L 305.07 184.16 L 309.17 186.98 L 313.27 189.79 L 317.37 192.61 L 321.47 195.42 L 325.58 198.23 L 329.70 201.02 L 333.83 203.78 L 338.01 206.47 L 342.26 209.05 L 346.61 211.42 L 351.08 213.50 L 355.67 215.17 L 360.38 216.33 L 365.17 216.91 L 369.99 216.86 L 374.77 216.18 L 379.49 214.95 L 384.11 213.27 L 388.66 211.29 L 393.15 209.16 L 397.64 207.02 L 402.17 205.03 L 406.77 203.26 L 411.47 201.81 L 416.24 200.70 L 421.08 199.96 L 425.97 199.60 L 430.86 199.63 L 435.73 200.05 L 440.56 200.86 L 445.31 202.04 L 449.95 203.60 L 454.45 205.52 L 458.79 207.79 L 462.93 210.41 L 466.85 213.34 L 470.53 216.57 L 473.94 220.08 L 477.07 223.85 L 479.88 227.86 L 482.37 232.08 L 484.52 236.49 L 486.32 241.05 L 487.75 245.74 L 488.80 250.53 L 489.47 255.38 L 489.76 260.28 L 489.66 265.18 L 489.17 270.06 L 488.30 274.88 L 487.05 279.63 L 485.43 284.25 L 483.45 288.74 L 481.13 293.05 Z" />
</symbol>
</defs>
<!-- isDone: 0 -->
<rect width="700" height="500" style="fill:#fff;stroke-width:0" />
<use class="p0 borderLine" xlink:href="#bl0"/>
<use class="p1 borderLine" xlink:href="#bl1"/>
<use class="p2 borderLine" xlink:href="#bl2"/>
<use class="p3 borderLine" xlink:href="#bl3"/>
<use class="q0 outLine" xlink:href="#bl0"/>
<use class="q1 outLine" xlink:href="#bl1"/>
<use class="q2 outLine" xlink:href="#bl2"/>
<use class="q3 outLine" xlink:href="#bl3"/>
<circle onclick="fromCircle(8)" class="circle" cx="53.8224" cy="241.9175" r="40.9698" />
<text class="nLabel" x="53.82" y="236.92">4</text>
<text class="belong" x="53.82" y="246.92">(1)</text>
<circle onclick="fromCircle(12)" class="circle" cx="119.8509" cy="214.9989" r="20.4849" />
<text class="nLabel" x="119.85" y="210.00">1</text>
<text class="belong" x="119.85" y="220.00">(1, 2)</text>
<circle onclick="fromCircle(14)" class="circle" cx="160.2081" cy="168.0929" r="28.9700" />
<text class="nLabel" x="160.21" y="163.09">2</text>
<text class="belong" x="160.21" y="173.09">(1, 2, 3)</text>
<circle onclick="fromCircle(15)" class="circle" cx="248.5128" cy="295.3604" r="117.6769" />
<text class="nLabel" x="248.51" y="290.36">33</text>
<text class="belong" x="248.51" y="300.36">(1, 2, 3, 4)</text>
<circle onclick="fromCircle(7)" class="circle" cx="231.2262" cy="151.2298" r="20.4849" />
<text class="nLabel" x="231.23" y="146.23">1</text>
<text class="belong" x="231.23" y="156.23">(2, 3, 4)</text>
<circle onclick="fromCircle(2)" class="circle" cx="306.4157" cy="122.7697" r="45.8057" />
<text class="nLabel" x="306.42" y="117.77">5</text>
<text class="belong" x="306.42" y="127.77">(3)</text>
<circle onclick="fromCircle(10)" class="circle" cx="367.7372" cy="184.8383" r="28.9700" />
<text class="nLabel" x="367.74" y="179.84">2</text>
<text class="belong" x="367.74" y="189.84">(1, 3)</text>
<circle onclick="fromCircle(11)" class="circle" cx="429.0233" cy="261.4577" r="57.9401" />
<text class="nLabel" x="429.02" y="256.46">8</text>
<text class="belong" x="429.02" y="266.46">(1, 3, 4)</text>
<circle onclick="fromCircle(1)" class="circle" cx="67.7200" cy="384.7654" r="20.4849" />
<text class="nLabel" x="67.72" y="379.77">1</text>
<text class="belong" x="67.72" y="389.77">(4)</text>
<circle onclick="fromCircle(9)" class="circle" cx="126.6232" cy="393.8560" r="28.9700" />
<text class="nLabel" x="126.62" y="388.86">2</text>
<text class="belong" x="126.62" y="398.86">(1, 4)</text>
<circle onclick="fromCircle(13)" class="circle" cx="89.1607" cy="322.1260" r="35.4809" />
<text class="nLabel" x="89.16" y="317.13">3</text>
<text class="belong" x="89.16" y="327.13">(1, 2, 4)</text>
<g id="legendBox">
<rect class="p0 borderLine" x="500.00" y="50.00" width="30.00" height="15.00" />
<rect class="q0" x="500.00" y="50.00" width="30.00" height="15.00" />
<text class="legend" x="540.00" y="65.00">G1</text>
<rect class="p1 borderLine" x="500.00" y="90.00" width="30.00" height="15.00" />
<rect class="q1" x="500.00" y="90.00" width="30.00" height="15.00" />
<text class="legend" x="540.00" y="105.00">G2</text>
<rect class="p2 borderLine" x="500.00" y="130.00" width="30.00" height="15.00" />
<rect class="q2" x="500.00" y="130.00" width="30.00" height="15.00" />
<text class="legend" x="540.00" y="145.00">G3</text>
<rect class="p3 borderLine" x="500.00" y="170.00" width="30.00" height="15.00" />
<rect class="q3" x="500.00" y="170.00" width="30.00" height="15.00" />
<text class="legend" x="540.00" y="185.00">G4</text>
</g>
</svg>
